<svg xmlns="http://www.w3.org/2000/svg" xmlns:xlink="http://www.w3.org/1999/xlink" viewBox="0 0 45.88 48.7"><linearGradient id="a" gradientUnits="userSpaceOnUse" x2="45.88" y1="24.35" y2="24.35"><stop offset="0" stop-color="#f1ab93"></stop><stop offset=".17" stop-color="#d6a5c7"></stop><stop offset=".35" stop-color="#bd9ff8"></stop><stop offset=".51" stop-color="#a4c9e6"></stop><stop offset=".67" stop-color="#8af5d3"></stop><stop offset="1" stop-color="#59c1f8"></stop></linearGradient><linearGradient id="b" x1="9.43" x2="36.45" xlink:href="#a" y1="22.83" y2="22.83"></linearGradient><linearGradient id="c" x1="21.99" x2="23.89" xlink:href="#a" y1="27.11" y2="27.11"></linearGradient><path d="m45.88 11.89a4 4 0 0 0 -6.88-2.76l-15.58-9a1 1 0 0 0 -1 0l-15.59 9a4 4 0 1 0 -3.83 6.64v18a1 1 0 0 0 .48.82l15.58 9a4.1 4.1 0 0 0 -.16 1.12 4 4 0 0 0 8 0 4.09 4.09 0 0 0 -.15-1.12l15.58-9a.94.94 0 0 0 .48-.82v-18a4 4 0 0 0 3.07-3.88zm-44 0a2.1 2.1 0 1 1 2.12 2.11 2.1 2.1 0 0 1 -2.1-2.11zm21 34.91a2.1 2.1 0 1 1 2.12-2.09 2.1 2.1 0 0 1 -2.06 2.09zm2.88-4.86a4 4 0 0 0 -5.76 0l-15-8.72v-17.45a4 4 0 0 0 3-3.88 4.15 4.15 0 0 0 -.16-1.12l15.1-8.72 15.11 8.72a4.15 4.15 0 0 0 -.16 1.12 4 4 0 0 0 3 3.88v17.45zm16.13-27.94a2.09 2.09 0 1 1 2.11-2.11 2.09 2.09 0 0 1 -2.11 2.11z" fill="url(#a)"></path><path d="m36 14.76-12.58-7.25a1 1 0 0 0 -1 0l-12.51 7.25a1 1 0 0 0 -.48.82v14.5a1 1 0 0 0 .48.82l12.56 7.25a1 1 0 0 0 .47.13 1 1 0 0 0 .48-.13l12.58-7.25a.94.94 0 0 0 .48-.82v-14.5a.94.94 0 0 0 -.48-.82zm-13-5.33 10.65 6.15-10.71 6.15-10.65-6.15zm.95 26.25v-4.29a.95.95 0 1 0 -1.9 0v4.29l-10.71-6.15v-12.3l11.13 6.42a.88.88 0 0 0 .47.13.91.91 0 0 0 .48-.13l11.13-6.42v12.3z" fill="url(#b)"></path><path d="m22.94 26.16a1 1 0 0 0 -1 .95 1 1 0 0 0 .28.67.94.94 0 0 0 1.34 0 1 1 0 0 0 .28-.67 1 1 0 0 0 -.95-.95z" fill="url(#c)"></path></svg>