<svg xmlns="http://www.w3.org/2000/svg" xmlns:xlink="http://www.w3.org/1999/xlink" viewBox="0 0 64 64.56"><linearGradient id="a" gradientUnits="userSpaceOnUse" x2="64" y1="32.28" y2="32.28"><stop offset="0" stop-color="#f1ab93"></stop><stop offset=".17" stop-color="#d6a5c7"></stop><stop offset=".35" stop-color="#bd9ff8"></stop><stop offset=".51" stop-color="#a4c9e6"></stop><stop offset=".67" stop-color="#8af5d3"></stop><stop offset="1" stop-color="#59c1f8"></stop></linearGradient><path d="m4.7 56.86a1 1 0 0 0 -1.4 0l-3 3a1 1 0 0 0 0 1.4l3 3a.91.91 0 0 0 .7.3.91.91 0 0 0 .7-.3l2.7-2.7h4.6v-2h-4.6zm-.7 5.3-1.6-1.6 1.6-1.56 1.6 1.6zm57-5v-4.6h-2v4.6l-2.7 2.7a1 1 0 0 0 0 1.4l3 3a1 1 0 0 0 1.4 0l3-3a1 1 0 0 0 0-1.4zm-1 5-1.6-1.6 1.6-1.56 1.6 1.6zm-57-54.16v4.6h2v-4.6l2.7-2.7a1 1 0 0 0 0-1.4l-3-3a1 1 0 0 0 -1.4 0l-3 3a1 1 0 0 0 0 1.4zm1-5 1.6 1.6-1.6 1.56-1.6-1.6zm55.3 5.3a1 1 0 0 0 1.4 0l3-3a1 1 0 0 0 0-1.4l-3-3a1 1 0 0 0 -1.4 0l-2.7 2.7h-4.6v2h4.6zm.7-5.3 1.6 1.6-1.6 1.56-1.6-1.6zm-10.6 30h7.2l2.7 2.7a1 1 0 0 0 1.4 0l3-3a1 1 0 0 0 0-1.4l-2.7-2.7v-4.6h-2v4.6l-2.4 2.4h-7.2l-2.4-2.4v-7.2l2.4-2.4h7.2l2.7 2.7a1 1 0 0 0 1.4 0l3-3a1 1 0 0 0 0-1.4l-2.7-2.7v-4.6h-2v4.6l-2.4 2.4h-7.2l-2.4-2.4v-7.2l2.7-2.7a1 1 0 0 0 0-1.4l-3-3a1 1 0 0 0 -1.4 0l-2.7 2.7h-4.6v2h4.6l2.4 2.4v7.2l-2.4 2.4h-7.2l-2.4-2.4v-7.2l2.7-2.7a1 1 0 0 0 0-1.4l-3-3a1 1 0 0 0 -1.4 0l-2.7 2.7h-4.6v2h4.6l2.4 2.4v7.2l-2.4 2.4h-7.2l-2.4-2.4v-7.2l2.7-2.7a1 1 0 0 0 0-1.4l-3-3a1 1 0 0 0 -1.4 0l-2.7 2.7h-4.6v2h4.6l2.4 2.4v7.2l-2.4 2.4h-7.2l-2.7-2.7a1 1 0 0 0 -1.4 0l-3 3a1 1 0 0 0 0 1.4l2.7 2.7v4.6h2v-4.6l2.4-2.4h7.2l2.4 2.4v7.2l-2.4 2.4h-7.2l-2.7-2.7a1 1 0 0 0 -1.4 0l-3 3a1 1 0 0 0 0 1.4l2.7 2.7v4.6h2v-4.6l2.4-2.4h7.2l2.4 2.4v7.2l-2.4 2.4h-7.2l-2.7-2.7a1 1 0 0 0 -1.4 0l-3 3a1 1 0 0 0 0 1.4l2.7 2.7v4.6h2v-4.6l2.4-2.4h7.2l2.4 2.4v7.2l-2.7 2.7a1 1 0 0 0 0 1.4l3 3a1 1 0 0 0 1.4 0l2.7-2.7h1.66v-2h-1.66l-2.4-2.4v-7.2l2.4-2.4h2.5a3.75 3.75 0 0 1 -1.6-1.46 4.43 4.43 0 0 1 -.3-.54h-.6l-2.4-2.4v-7.2l2.7-2.7a1 1 0 0 0 0-1.4l-2.7-2.7v-7.2l2.4-2.4h7.2l2.7 2.7a1 1 0 0 0 1.4 0l2.7-2.7h7.2l2.4 2.4v7.2l-2.7 2.7a1 1 0 0 0 0 1.4l2.7 2.7v7.2l-2.4 2.4h-4.49c-.63 0-1 .58-1.16.8l-7.74 10-1.93 2.51 1.07-3 3.08-8.59a.92.92 0 0 0 -.86-1.23h-3.4a1.92 1.92 0 0 1 -1.69-2.81l7.84-13.45.14-.24h6.27l-.45.75-5.65 9.39a.94.94 0 0 0 0 .93.92.92 0 0 0 .8.47h5a.92.92 0 0 1 .88.54.89.89 0 0 1 -.16 1l-.59.7a.93.93 0 0 0 -.21.67.91.91 0 0 0 .33.62.9.9 0 0 0 1.32-.06l.58-.69a2.76 2.76 0 0 0 -2.12-4.58h-3.41l.46-.75 5.64-9.4a.89.89 0 0 0 0-.92.92.92 0 0 0 -.8-.47h-8.41a.9.9 0 0 0 -.79.46l-8.26 14.15a3.75 3.75 0 0 0 3.29 5.54h2.09l-.27.66-3.55 10a1.52 1.52 0 0 0 .09 1.45 1.83 1.83 0 0 0 1.55.76 2.22 2.22 0 0 0 1.52-.62l.08-.09 9.56-12.5h4.35l2.4 2.4v7.2l-2.7 2.7a1 1 0 0 0 0 1.4l3 3a1 1 0 0 0 1.4 0l2.7-2.7h4.6v-2h-4.6l-2.4-2.4v-7.2l2.4-2.4h7.2l2.7 2.7a1 1 0 0 0 1.4 0l3-3a1 1 0 0 0 0-1.4l-2.7-2.7v-4.6h-2v4.6l-2.4 2.4h-7.2l-2.4-2.4v-7.2zm10.6-2.6 1.6 1.6-1.6 1.6-1.6-1.6zm0-14 1.6 1.6-1.6 1.6-1.6-1.6zm-56 3.2-1.6-1.6 1.6-1.6 1.6 1.6zm0 14-1.6-1.6 1.6-1.6 1.6 1.6zm0 14-1.6-1.6 1.6-1.6 1.6 1.6zm12.4-43.6 1.6-1.6 1.6 1.6-1.6 1.6zm3.2 56-1.6 1.6-1.6-1.6 1.6-1.6zm0-14-1.6 1.6-1.6-1.6 1.6-1.6zm0-14-1.6 1.6-1.6-1.6 1.6-1.6zm-1.6-12.4-1.6-1.6 1.6-1.6 1.6 1.6zm12.4-15.6 1.6-1.6 1.6 1.6-1.6 1.6zm1.6 15.6-1.6-1.6 1.6-1.6 1.6 1.6zm28 24.8 1.6 1.6-1.6 1.6-1.6-1.6zm-15.6-40.4 1.6-1.6 1.6 1.6-1.6 1.6zm0 14 1.6-1.6 1.6 1.6-1.6 1.6zm3.2 42-1.6 1.6-1.6-1.6 1.6-1.6zm0-14-1.6 1.6-1.6-1.6 1.6-1.6zm-1.6-12.4-1.6-1.6 1.6-1.6 1.6 1.6z" fill="url(#a)"></path></svg>